<svg width="283" height="49" viewBox="0 0 283 49" fill="none" xmlns="http://www.w3.org/2000/svg">
<path d="M84.16 20.664V35H77.972V20.664H71.644V15.736H90.46V20.664H84.16ZM98.8631 19.88C101.57 19.88 103.632 20.5147 105.051 21.784C106.488 23.0533 107.207 24.9947 107.207 27.608V28.56H96.1191C96.1191 29.624 96.3524 30.4267 96.8191 30.968C97.3044 31.5093 98.0604 31.78 99.0871 31.78C100.02 31.78 100.702 31.584 101.131 31.192C101.579 30.8 101.803 30.2773 101.803 29.624H107.207C107.207 31.416 106.526 32.816 105.163 33.824C103.8 34.832 101.812 35.336 99.1991 35.336C96.4551 35.336 94.3271 34.7013 92.8151 33.432C91.3031 32.144 90.5471 30.2027 90.5471 27.608C90.5471 25.0693 91.2844 23.1467 92.7591 21.84C94.2337 20.5333 96.2684 19.88 98.8631 19.88ZM99.0871 23.436C97.3324 23.436 96.3524 24.2667 96.1471 25.928H101.579C101.579 25.1627 101.355 24.556 100.907 24.108C100.478 23.66 99.8711 23.436 99.0871 23.436ZM117.203 19.88C119.462 19.88 121.3 20.2627 122.719 21.028C124.138 21.7747 124.847 22.9973 124.847 24.696V30.464C124.847 30.7813 124.922 31.0427 125.071 31.248C125.22 31.4533 125.444 31.556 125.743 31.556H126.751V34.776C126.695 34.8133 126.546 34.8787 126.303 34.972C126.079 35.0467 125.752 35.1213 125.323 35.196C124.894 35.2893 124.399 35.336 123.839 35.336C122.756 35.336 121.86 35.1773 121.151 34.86C120.46 34.524 119.984 34.0667 119.723 33.488C119.014 34.048 118.22 34.496 117.343 34.832C116.466 35.168 115.439 35.336 114.263 35.336C110.791 35.336 109.055 33.9547 109.055 31.192C109.055 29.7547 109.438 28.6627 110.203 27.916C110.987 27.1507 112.107 26.628 113.563 26.348C115.019 26.068 116.923 25.928 119.275 25.928V25.2C119.275 24.6213 119.07 24.1827 118.659 23.884C118.267 23.5853 117.754 23.436 117.119 23.436C116.54 23.436 116.036 23.5387 115.607 23.744C115.196 23.9493 114.991 24.276 114.991 24.724V24.836H109.503C109.484 24.7427 109.475 24.612 109.475 24.444C109.475 23.044 110.138 21.9333 111.463 21.112C112.807 20.2907 114.72 19.88 117.203 19.88ZM119.275 28.56C117.688 28.56 116.512 28.7373 115.747 29.092C115 29.428 114.627 29.8853 114.627 30.464C114.627 31.3973 115.262 31.864 116.531 31.864C117.259 31.864 117.894 31.668 118.435 31.276C118.995 30.884 119.275 30.3987 119.275 29.82V28.56ZM148.199 19.88C149.879 19.88 151.139 20.3653 151.979 21.336C152.819 22.288 153.239 23.6507 153.239 25.424V35H147.667V26.096C147.667 25.4613 147.508 24.9573 147.191 24.584C146.892 24.192 146.463 23.996 145.903 23.996C145.249 23.996 144.717 24.22 144.307 24.668C143.896 25.116 143.691 25.6667 143.691 26.32V35H138.119V26.096C138.119 25.4613 137.96 24.9573 137.643 24.584C137.344 24.192 136.915 23.996 136.355 23.996C135.701 23.996 135.169 24.22 134.759 24.668C134.348 25.116 134.143 25.6667 134.143 26.32V35H128.571V20.216H133.135L133.499 22.428C134.059 21.644 134.796 21.028 135.711 20.58C136.644 20.1133 137.624 19.88 138.651 19.88C140.872 19.88 142.365 20.7293 143.131 22.428C143.709 21.644 144.447 21.028 145.343 20.58C146.257 20.1133 147.209 19.88 148.199 19.88ZM166.147 15.4C169.003 15.4 171.261 16.1187 172.923 17.556C174.584 18.9747 175.415 21.0093 175.415 23.66H169.507C169.507 22.54 169.208 21.6533 168.611 21C168.032 20.3467 167.201 20.02 166.119 20.02C164.868 20.02 163.944 20.412 163.347 21.196C162.768 21.98 162.479 23.072 162.479 24.472V26.264C162.479 27.6453 162.768 28.7373 163.347 29.54C163.944 30.324 164.849 30.716 166.063 30.716C167.257 30.716 168.163 30.408 168.779 29.792C169.395 29.176 169.703 28.308 169.703 27.188H175.415C175.415 29.82 174.603 31.836 172.979 33.236C171.373 34.636 169.096 35.336 166.147 35.336C162.861 35.336 160.369 34.496 158.671 32.816C156.991 31.136 156.151 28.6533 156.151 25.368C156.151 22.0827 156.991 19.6 158.671 17.92C160.369 16.24 162.861 15.4 166.147 15.4ZM186.008 19.88C188.602 19.88 190.637 20.5427 192.112 21.868C193.605 23.1747 194.352 25.088 194.352 27.608C194.352 30.128 193.605 32.0507 192.112 33.376C190.637 34.6827 188.602 35.336 186.008 35.336C183.413 35.336 181.378 34.6827 179.904 33.376C178.429 32.0693 177.692 30.1467 177.692 27.608C177.692 25.0693 178.429 23.1467 179.904 21.84C181.378 20.5333 183.413 19.88 186.008 19.88ZM186.008 23.66C184.178 23.66 183.264 24.7147 183.264 26.824V28.42C183.264 30.5107 184.178 31.556 186.008 31.556C187.856 31.556 188.78 30.5107 188.78 28.42V26.824C188.78 24.7147 187.856 23.66 186.008 23.66ZM207.231 19.88C208.949 19.88 210.237 20.356 211.095 21.308C211.954 22.26 212.383 23.632 212.383 25.424V35H206.811V26.096C206.811 25.4613 206.643 24.9573 206.307 24.584C205.99 24.192 205.533 23.996 204.935 23.996C204.245 23.996 203.685 24.22 203.255 24.668C202.826 25.116 202.611 25.6667 202.611 26.32V35H197.039V20.216H201.603L201.967 22.456C202.546 21.672 203.302 21.0467 204.235 20.58C205.187 20.1133 206.186 19.88 207.231 19.88ZM225.907 19.88C227.624 19.88 228.912 20.356 229.771 21.308C230.63 22.26 231.059 23.632 231.059 25.424V35H225.487V26.096C225.487 25.4613 225.319 24.9573 224.983 24.584C224.666 24.192 224.208 23.996 223.611 23.996C222.92 23.996 222.36 24.22 221.931 24.668C221.502 25.116 221.287 25.6667 221.287 26.32V35H215.715V20.216H220.279L220.643 22.456C221.222 21.672 221.978 21.0467 222.911 20.58C223.863 20.1133 224.862 19.88 225.907 19.88ZM242.035 19.88C244.742 19.88 246.804 20.5147 248.223 21.784C249.66 23.0533 250.379 24.9947 250.379 27.608V28.56H239.291C239.291 29.624 239.524 30.4267 239.991 30.968C240.476 31.5093 241.232 31.78 242.259 31.78C243.192 31.78 243.874 31.584 244.303 31.192C244.751 30.8 244.975 30.2773 244.975 29.624H250.379C250.379 31.416 249.698 32.816 248.335 33.824C246.972 34.832 244.984 35.336 242.371 35.336C239.627 35.336 237.499 34.7013 235.987 33.432C234.475 32.144 233.719 30.2027 233.719 27.608C233.719 25.0693 234.456 23.1467 235.931 21.84C237.406 20.5333 239.44 19.88 242.035 19.88ZM242.259 23.436C240.504 23.436 239.524 24.2667 239.319 25.928H244.751C244.751 25.1627 244.527 24.556 244.079 24.108C243.65 23.66 243.043 23.436 242.259 23.436ZM260.711 19.88C263.137 19.88 265.097 20.4027 266.591 21.448C268.103 22.4747 268.859 24.052 268.859 26.18H263.455C263.455 24.5 262.54 23.66 260.711 23.66C258.881 23.66 257.967 24.7147 257.967 26.824V28.42C257.967 30.5107 258.919 31.556 260.823 31.556C262.727 31.556 263.679 30.6973 263.679 28.98H268.859C268.859 31.1267 268.103 32.7227 266.591 33.768C265.097 34.8133 263.137 35.336 260.711 35.336C258.116 35.336 256.081 34.6827 254.607 33.376C253.132 32.0693 252.395 30.1467 252.395 27.608C252.395 25.0693 253.132 23.1467 254.607 21.84C256.081 20.5333 258.116 19.88 260.711 19.88ZM281.599 20.216V23.996H278.463V29.624C278.463 30.296 278.575 30.7907 278.799 31.108C279.023 31.4067 279.433 31.556 280.031 31.556H281.599V34.832C281.151 34.9813 280.572 35.1027 279.863 35.196C279.153 35.2893 278.537 35.336 278.015 35.336C276.372 35.336 275.103 35.0373 274.207 34.44C273.329 33.8427 272.891 32.8253 272.891 31.388V23.996H270.819V20.216H273.115L274.319 15.736H278.463V20.216H281.599Z" fill="black"/>
<path d="M35.5385 39.3077C36.4001 42.3231 30.8719 47.0256 28.0001 49C46.9539 44.2615 50.9744 38.0513 50.6155 35.5385L35.5385 3.23077L23.6924 12.3846C27.2821 20.1026 34.677 36.2923 35.5385 39.3077Z" fill="#E8618C"/>
<path d="M15.0987 9.69231C14.2371 6.67692 19.7653 1.97436 22.6371 -3.43811e-06C3.68328 4.73846 -0.337232 10.9487 0.0217429 13.4615L15.0987 45.7692L26.9448 36.6154C23.3551 28.8974 15.9602 12.7077 15.0987 9.69231Z" fill="#636AE8"/>
</svg>
